<svg width="46" height="58" viewBox="0 0 46 58" fill="none" xmlns="http://www.w3.org/2000/svg">
<path d="M21.8124 0.130207C20.6036 0.417038 19.948 0.826797 19.026 1.87169C18.0835 2.95755 17.7762 3.81805 17.7762 5.45709C17.7762 6.89125 18.5138 8.46883 19.6406 9.34982L20.4397 9.98495V12.3206V14.6562H17.4689C14.703 14.6562 14.4981 14.6357 14.2933 14.226C14.1089 13.8777 13.904 13.8162 13.105 13.8777L12.142 13.9391V16.0904V18.2416L13.0435 18.3031C13.8015 18.3645 14.0269 18.2826 14.3137 17.9138L14.6416 17.4631L17.1821 17.9138C18.5753 18.1597 19.8865 18.4055 20.0914 18.467C20.4192 18.5694 20.4397 19.2865 20.4397 29.7559C20.4397 37.7872 20.3782 41.1677 20.1938 41.7414C19.6816 43.4624 17.8377 44.0975 15.2152 43.4419C13.2279 42.9502 11.2201 42.0282 9.23272 40.7375C7.59368 39.6721 5.19658 37.316 5.33999 36.9062C5.38097 36.7833 5.87268 36.5169 6.42586 36.2916C6.97904 36.0662 7.47075 35.8613 7.53221 35.8203C7.57319 35.7794 6.09805 34.2223 4.25413 32.3784C2.41021 30.5344 0.853116 29.0388 0.81214 29.1003C0.668724 29.2232 -0.109821 38.6272 0.0131074 38.7501C0.0540835 38.7911 0.627748 38.6477 1.26288 38.4018C1.89801 38.156 2.45118 37.9921 2.49216 38.0331C2.51265 38.074 2.96338 38.996 3.49607 40.0614C5.72927 44.6917 9.68346 48.1541 15.0513 50.1825C17.7148 51.1864 18.4114 51.5756 19.8045 52.8664C20.9314 53.9113 22.6934 56.3493 22.6934 56.8616C22.6934 57.3738 23.1031 56.964 23.9841 55.5503C25.7461 52.7844 27.5285 51.4732 31.79 49.7932C36.5637 47.9288 40.2721 44.5278 42.5258 39.9589C43.038 38.955 43.4887 38.074 43.5092 38.0331C43.5502 37.9921 44.1033 38.156 44.7385 38.4018C45.3736 38.6477 45.9473 38.7911 45.9882 38.7501C46.0907 38.6477 45.4965 31.231 45.2712 29.8583L45.1277 28.9569L41.9521 32.153C40.2106 33.915 38.715 35.472 38.633 35.636C38.5101 35.8408 38.756 36.0252 39.5345 36.3121C40.1287 36.5374 40.6204 36.8038 40.6614 36.9267C40.7843 37.2955 38.0184 39.9794 36.5228 40.9219C33.6544 42.7453 30.2534 43.8926 28.4095 43.6877C27.0778 43.5238 26.0739 42.7863 25.7666 41.7414C25.6436 41.2702 25.5617 36.8857 25.5617 29.7764C25.5617 19.2865 25.5822 18.5694 25.9305 18.467C26.1149 18.4055 27.4261 18.1597 28.8193 17.9138L31.3598 17.4631L31.6876 17.9138C31.9744 18.2826 32.1998 18.3645 32.9579 18.3031L33.8593 18.2416V16.0904V13.9391L32.7939 13.8777C31.8925 13.8162 31.7286 13.8777 31.6056 14.2465C31.4827 14.6357 31.3188 14.6562 28.512 14.6562H25.5617V12.2386V9.82104L26.1558 9.47275C26.9958 8.98103 27.9793 7.40345 28.1432 6.31759C28.4505 4.2483 27.8358 2.48633 26.3402 1.23656C25.1109 0.191669 23.3285 -0.238579 21.8124 0.130207ZM24.3734 3.20341C26.3812 4.63757 25.4797 7.69029 23.0416 7.69029C21.9763 7.69029 21.1772 7.23955 20.7675 6.37906C20.3167 5.4366 20.3577 4.80148 20.9109 3.98196C21.7509 2.73219 23.226 2.40438 24.3734 3.20341Z" fill="#C8A464"/>
</svg>
