<svg width="69" height="69" viewBox="0 0 69 69" fill="none" xmlns="http://www.w3.org/2000/svg">
<mask id="path-1-inside-1_35_715" fill="white">
<path d="M0 0.385742H4V56.3857L26.32 17.7057L50.36 31.5857L64.84 6.54574L68.28 8.54574L51.84 37.0657L27.8 23.1857L4 64.3857H68V68.3857H0V0.385742Z"/>
</mask>
<path d="M0 0.385742H4V56.3857L26.32 17.7057L50.36 31.5857L64.84 6.54574L68.28 8.54574L51.84 37.0657L27.8 23.1857L4 64.3857H68V68.3857H0V0.385742Z" fill="white"/>
<path d="M0 0.385742V-9.61426H-10V0.385742H0ZM4 0.385742H14V-9.61426H4V0.385742ZM4 56.3857H-6V93.7235L12.6614 61.3837L4 56.3857ZM26.32 17.7057L31.3201 9.04557L22.6578 4.0442L17.6586 12.7077L26.32 17.7057ZM50.36 31.5857L45.3599 40.2459L54.0142 45.2427L59.0168 36.5917L50.36 31.5857ZM64.84 6.54574L69.8662 -2.09933L61.2009 -7.13728L56.1832 1.53974L64.84 6.54574ZM68.28 8.54574L76.9437 13.5398L81.9192 4.90824L73.3062 -0.0993314L68.28 8.54574ZM51.84 37.0657L46.8399 45.7259L55.5061 50.7296L60.5037 42.0598L51.84 37.0657ZM27.8 23.1857L32.8001 14.5256L24.1419 9.52655L19.1409 18.1837L27.8 23.1857ZM4 64.3857L-4.65906 59.3837L-13.3253 74.3857H4V64.3857ZM68 64.3857H78V54.3857H68V64.3857ZM68 68.3857V78.3857H78V68.3857H68ZM0 68.3857H-10V78.3857H0V68.3857ZM0 0.385742V10.3857H4V0.385742V-9.61426H0V0.385742ZM4 0.385742H-6V56.3857H4H14V0.385742H4ZM4 56.3857L12.6614 61.3837L34.9814 22.7037L26.32 17.7057L17.6586 12.7077L-4.66141 51.3877L4 56.3857ZM26.32 17.7057L21.3199 26.3659L45.3599 40.2459L50.36 31.5857L55.3601 22.9256L31.3201 9.04557L26.32 17.7057ZM50.36 31.5857L59.0168 36.5917L73.4968 11.5517L64.84 6.54574L56.1832 1.53974L41.7032 26.5797L50.36 31.5857ZM64.84 6.54574L59.8138 15.1908L63.2538 17.1908L68.28 8.54574L73.3062 -0.0993314L69.8662 -2.09933L64.84 6.54574ZM68.28 8.54574L59.6163 3.55167L43.1763 32.0717L51.84 37.0657L60.5037 42.0598L76.9437 13.5398L68.28 8.54574ZM51.84 37.0657L56.8401 28.4056L32.8001 14.5256L27.8 23.1857L22.7999 31.8459L46.8399 45.7259L51.84 37.0657ZM27.8 23.1857L19.1409 18.1837L-4.65906 59.3837L4 64.3857L12.6591 69.3878L36.4591 28.1878L27.8 23.1857ZM4 64.3857V74.3857H68V64.3857V54.3857H4V64.3857ZM68 64.3857H58V68.3857H68H78V64.3857H68ZM68 68.3857V58.3857H0V68.3857V78.3857H68V68.3857ZM0 68.3857H10V0.385742H0H-10V68.3857H0Z" fill="white" mask="url(#path-1-inside-1_35_715)"/>
</svg>
