<svg width="79" height="110" viewBox="0 0 79 110" fill="none" xmlns="http://www.w3.org/2000/svg">
<path d="M39.5 25.1585V40.0221L59.25 20.2039L39.5 0.385742V15.2494C17.6763 15.2494 0 32.9867 0 54.8857C0 62.6644 2.27125 69.898 6.1225 75.9921L13.3312 68.7585C11.0524 64.4927 9.86478 59.7258 9.875 54.8857C9.875 38.4862 23.1569 25.1585 39.5 25.1585ZM72.8775 33.7794L65.6687 41.013C67.8412 45.1748 69.125 49.8817 69.125 54.8857C69.125 71.2853 55.8431 84.613 39.5 84.613V69.7494L19.75 89.5676L39.5 109.386V94.5221C61.3237 94.5221 79 76.7848 79 54.8857C79 47.1071 76.7288 39.8735 72.8775 33.7794Z" fill="white"/>
</svg>
