<svg width="84" height="84" viewBox="0 0 84 84" fill="none" xmlns="http://www.w3.org/2000/svg">
<path d="M72.125 15.1045C72.125 11.1677 70.5611 7.39212 67.7774 4.60838C64.9936 1.82463 61.2181 0.260742 57.2812 0.260742H15.7188C11.7819 0.260742 8.00638 1.82463 5.22263 4.60838C2.43889 7.39212 0.875 11.1677 0.875 15.1045V56.667C0.875 60.6038 2.43889 64.3794 5.22263 67.1631C8.00638 69.9469 11.7819 71.5107 15.7188 71.5107H30.5625V65.5732H15.7188C13.3567 65.5732 11.0913 64.6349 9.42108 62.9647C7.75083 61.2944 6.8125 59.0291 6.8125 56.667V24.0107H66.1875V25.602C67.9927 26.6442 69.4917 28.1432 70.534 29.9484C71.5762 31.7536 72.1249 33.8013 72.125 35.8857V15.1045ZM15.7188 6.19824H57.2812C59.6433 6.19824 61.9087 7.13658 63.5789 8.80682C65.2492 10.4771 66.1875 12.7424 66.1875 15.1045V18.0732H6.8125V15.1045C6.8125 12.7424 7.75083 10.4771 9.42108 8.80682C11.0913 7.13658 13.3567 6.19824 15.7188 6.19824ZM60.25 29.9482C58.6753 29.9482 57.1651 30.5738 56.0516 31.6873C54.9381 32.8008 54.3125 34.311 54.3125 35.8857V77.4482C54.3125 79.023 54.9381 80.5332 56.0516 81.6467C57.1651 82.7602 58.6753 83.3857 60.25 83.3857C61.8247 83.3857 63.3349 82.7602 64.4484 81.6467C65.5619 80.5332 66.1875 79.023 66.1875 77.4482V35.8857C66.1875 34.311 65.5619 32.8008 64.4484 31.6873C63.3349 30.5738 61.8247 29.9482 60.25 29.9482ZM42.4375 53.6982C40.8628 53.6982 39.3526 54.3238 38.2391 55.4373C37.1256 56.5508 36.5 58.061 36.5 59.6357V77.4482C36.5 79.023 37.1256 80.5332 38.2391 81.6467C39.3526 82.7602 40.8628 83.3857 42.4375 83.3857C44.0122 83.3857 45.5224 82.7602 46.6359 81.6467C47.7494 80.5332 48.375 79.023 48.375 77.4482V59.6357C48.375 58.061 47.7494 56.5508 46.6359 55.4373C45.5224 54.3238 44.0122 53.6982 42.4375 53.6982ZM72.125 47.7607C72.125 46.186 72.7506 44.6758 73.8641 43.5623C74.9776 42.4488 76.4878 41.8232 78.0625 41.8232C79.6372 41.8232 81.1474 42.4488 82.2609 43.5623C83.3744 44.6758 84 46.186 84 47.7607V77.4482C84 79.023 83.3744 80.5332 82.2609 81.6467C81.1474 82.7602 79.6372 83.3857 78.0625 83.3857C76.4878 83.3857 74.9776 82.7602 73.8641 81.6467C72.7506 80.5332 72.125 79.023 72.125 77.4482V47.7607Z" fill="white"/>
</svg>
