<svg width="72" height="90" viewBox="0 0 72 90" fill="none" xmlns="http://www.w3.org/2000/svg">
<path d="M19.5 40.7357H52.5M19.5 53.1857H52.5M19.5 65.6357H36.7013M3 61.4857V28.2857C3 16.5495 3 10.6773 6.62588 7.03359C10.2476 3.38574 16.0845 3.38574 27.75 3.38574H44.9595C46.6425 3.38574 47.4881 3.38574 48.2471 3.70114C49.002 4.01654 49.6001 4.61414 50.7923 5.81764L66.5827 21.7038C67.779 22.9073 68.373 23.5049 68.6865 24.2685C69 25.028 69 25.8787 69 27.5719V61.4857C69 73.2219 69 79.0942 65.3741 82.7379C61.7524 86.3857 55.9155 86.3857 44.25 86.3857H27.75C16.0845 86.3857 10.2476 86.3857 6.62588 82.7379C3 79.0942 3 73.2219 3 61.4857Z" stroke="white" stroke-width="6" stroke-linecap="round" stroke-linejoin="round"/>
</svg>
